<svg xmlns="http://www.w3.org/2000/svg" width="40px" height="40px" viewBox="0 0 40 40">
  <g id="icon" fill="none" stroke="none" fill-rule="evenodd" transform="translate(6 6)">
    <path fill="#40BCF4" stroke="#40BCF4" stroke-linecap="round" stroke-linejoin="round" stroke-width="1.5" d="M28,14.1 C28,6.31182353 21.7329412,0 14,0 C6.26705882,0 0,6.31182353 0,14.1 C0,21.8881765 6.26705882,28.2 14,28.2 C16.2976471,28.2 18.4635294,27.6442941 20.3741176,26.6572941 C19.7235294,25.4505 19.3529412,24.0695294 19.3529412,22.6014706 C19.3529412,17.907 23.1329412,14.1 27.7941176,14.1 L28,14.1 L28,14.1 Z"/>
    <g id="inner-details" transform="translate(7.193 7.905)">
      <path fill="#3F4E5A" d="M7.9346162,7.24579604 C7.254624,7.93350677 6.16090163,7.94179244 5.48910211,7.26236738 C4.82139894,6.58708516 4.82959161,5.48094802 5.5095838,4.79323729 C6.189576,4.10552656 7.28329837,4.09724089 7.95509789,4.77252311 C8.62280106,5.45194817 8.61460839,6.55808531 7.9346162,7.24579604"/>
      <path stroke="#3F4E5A" stroke-linecap="round" stroke-linejoin="round" stroke-width="1.5" d="M0 4.61515318 6.83687052 6.3883 13.4935 0"/>
      <path fill="#BCD" d="M23.9393,14.0525 L23.9393,15.2954 L16.9754,15.2954 L16.9754,14.0525 L23.9393,14.0525 Z M20.4573,21.0954 C23.9638074,21.0954 26.8067,18.2202475 26.8067,14.67395 C26.8067,11.1276525 23.9638074,8.2525 20.4573,8.2525 C16.9507926,8.2525 14.1079,11.1276525 14.1079,14.67395 C14.1079,18.2202475 16.9507926,21.0954 20.4573,21.0954 Z"/>
    </g>
  </g>
</svg>
